<svg xmlns="http://www.w3.org/2000/svg" xmlns:xlink="http://www.w3.org/1999/xlink" width="100%" viewBox="202.70277893422391 116.70503685835678 144.59444213155226 144.59444213155223" height="60px">
    <g fill-rule="evenodd">
        <g>
            <path d="M299.09807,134.76809c0,6.64802 -5.40602,12.05604 -12.04804,12.05604l-24.10007,0.004c-19.44406,0 -37.76612,4.73001 -54.03917,12.95004c11.23003,-25.35808 36.57711,-43.07313 66.0892,-43.07313c8.46803,0 16.55105,1.529 24.09807,4.20101z" fill="#ffc600" />
            <path d="M203.85578,176.51122c17.02205,-11.11403 37.29411,-17.63305 59.09418,-17.63305l24.10007,-0.006c13.29204,0 24.09907,-10.81203 24.09907,-24.10407v-8.31003c4.31801,2.49601 8.33503,5.43702 12.02404,8.74403c-0.235,19.73406 -16.33705,35.72111 -36.12311,35.72111l-24.10007,0.005c-22.72107,0 -43.59713,7.94402 -60.08818,21.14506c-0.047,-1.023 -0.159,-2.03501 -0.159,-3.07101c0,-4.27101 0.441,-8.42403 1.153,-12.49104z" fill="#ffc600" />
            <path d="M341.4562,160.52617c-9.66803,20.37006 -30.36009,34.49511 -54.40617,34.49511l-24.10007,0.005c-21.32207,0 -40.43812,9.29203 -53.67016,23.97607c-1.84701,-4.04101 -3.31701,-8.28903 -4.40601,-12.69004c15.14405,-14.42004 35.57211,-23.33407 58.07618,-23.33407l24.10007,-0.007c22.40007,0 41.22013,-15.38505 46.60514,-36.12511c3.05801,4.24901 5.71302,8.80903 7.80102,13.68004z" fill="#ffc600" />
            <path d="M346.12822,176.36522c-13.09304,18.55506 -34.64911,30.71209 -59.07818,30.71209h-24.10007c-19.23306,0 -36.31911,9.04203 -47.34914,23.08207c2.36601,3.40701 5.00602,6.60602 7.90702,9.55403c8.72503,-12.42604 23.14107,-20.58606 39.44212,-20.58606h24.10007c23.45907,0 44.69214,-9.64503 59.99418,-25.16008c0.112,-1.64601 0.253,-3.28701 0.253,-4.96502c0,-4.32001 -0.446,-8.52503 -1.169,-12.63704z" fill="#ffc600" />
            <path d="M262.94996,231.17539c-12.63804,0 -23.76207,6.53002 -30.22909,16.38605c11.89604,8.60703 26.47708,13.73804 42.27913,13.73804c31.4941,0 58.20618,-20.16906 68.11821,-48.26915c-15.81505,11.37403 -35.14711,18.14506 -56.06817,18.14506z" fill="#eaaa00" />
        </g>
    </g>
</svg>
